PathFileType	4	(X/Y/Z)	9_coords_data.trc
DataRate	CameraRate	NumFrames	NumMarkers	Units	OrigDataRate	OrigDataStartFrame	OrigNumFrames
30.0	30.0	5	21	m	30.0	11	52
Frame#	Time	THUMB_TIP	THUMB_IP	THUMB_MCP	THUMB_CMC	INDEX_TIP	INDEX_DIP	INDEX_PIP	INDEX_MCP	MIDDLE_TIP	MIDDLE_DIP	MIDDLE_PIP	MIDDLE_MCP	RING_TIP	RING_DIP	RING_PIP	RING_MCP	PINKY_TIP	PINKY_DIP	PINKY_PIP	PINKY_MCP	WRIST
X1	Y1	Z1	X2	Y2	Z2	X3	Y3	Z3	X4	Y4	Z4	X5	Y5	Z5	X6	Y6	Z6	X7	Y7	Z7	X8	Y8	Z8	X9	Y9	Z9	X10	Y10	Z10	X11	Y11	Z11	X12	Y12	Z12	X13	Y13	Z13	X14	Y14	Z14	X15	Y15	Z15	X16	Y16	Z16	X17	Y17	Z17	X18	Y18	Z18	X19	Y19	Z19	X20	Y20	Z20	X21	Y21	Z21
10	0.3333333333333333	0.004777050018310547	-0.09749549865722656	0.9590330200195313	0.007566720008850098	-0.07455359649658203	0.9731630249023437	0.003043450117111206	-0.054802299499511715	0.9958170166015625	-0.0008608430027961731	-0.024035600662231444	1.0161500244140624	0.027753000259399415	-0.046526901245117186	0.8773259887695313	0.020161699295043946	-0.043371601104736326	0.8984749755859375	0.010809100151062012	-0.03979380035400391	0.9191690063476563	-0.000985912978649139	-0.03169070053100586	0.9573690185546875	0.028156600952148437	-0.0007778570055961601	0.861697998046875	0.021224700927734375	-0.004176519870758057	0.8859190063476563	0.008653989791870117	-0.006337460041046143	0.913989013671875	-0.00398868989944458	-0.008532159805297852	0.9554210205078125	0.029812700271606447	0.025712299346923827	0.8760150146484375	0.02053809928894043	0.023670099258422853	0.8986719970703125	0.007465189933776856	0.020013399124145508	0.9244110107421875	-0.001837000012397766	0.012937399864196777	0.9627080078125	0.03170980072021484	0.06500599670410157	0.9231530151367188	0.020547500610351564	0.05842570114135742	0.9386279907226562	0.01022350025177002	0.05066299819946289	0.9529840087890625	0.002040819883346557	0.03368679809570312	0.9756480102539062	-0.027970699310302733	-0.003344919919967651	1.0396600341796876
11	0.36666666666666664	0.00499413013458252	-0.09729660034179688	0.9589400024414062	0.007665760040283203	-0.07434230041503906	0.9731680297851563	0.0030711500644683837	-0.05456079864501953	0.995885986328125	-0.0009158080220222471	-0.023906000137329103	1.0161400146484374	0.027845699310302733	-0.04609989929199219	0.8773209838867188	0.020186399459838866	-0.043044498443603516	0.898572998046875	0.010794599533081055	-0.03953799819946289	0.9192169799804687	-0.0009748809933662412	-0.03159830093383789	0.9573619995117187	0.028031299591064453	-0.000595632970333099	0.861739990234375	0.021124900817871092	-0.00400954008102417	0.8859559936523438	0.008572640419006348	-0.006210770130157471	0.913989013671875	-0.004125770092010498	-0.008446060180664062	0.9554979858398438	0.029746299743652345	0.025859899520874023	0.8760880126953124	0.020455699920654297	0.023808900833129882	0.8986649780273438	0.007304349899291992	0.020101400375366212	0.92443701171875	-0.00202032995223999	0.013046600341796876	0.9627750244140625	0.03158639907836914	0.06508360290527344	0.9232000122070313	0.02041469955444336	0.0585098991394043	0.9386589965820312	0.010083399772644042	0.050776100158691405	0.953	0.0018924000263214112	0.03383050155639648	0.9756480102539062	-0.027877799987792967	-0.003428109884262085	1.03956005859375
12	0.4	0.005370739936828613	-0.09702909851074219	0.9588309936523437	0.007916409969329834	-0.07414759826660157	0.973114013671875	0.003130059957504272	-0.05439450073242187	0.9959420166015625	-0.000898424983024597	-0.023788799285888673	1.01622998046875	0.027978000640869142	-0.04584170150756836	0.8773989868164063	0.020230100631713866	-0.042832199096679686	0.8986240234375	0.010774600028991698	-0.0393577995300293	0.9192769775390625	-0.001064010024070739	-0.031487300872802736	0.9575120239257813	0.02808209991455078	-0.000357995986938476	0.8618610229492187	0.021139999389648438	-0.003814909934997558	0.8860440063476562	0.008524209976196288	-0.0060639801025390615	0.9140750122070312	-0.004194640159606934	-0.008348879814147949	0.9556209716796875	0.029917400360107423	0.026082300186157228	0.8762310180664062	0.020525600433349608	0.024005599975585937	0.8988209838867187	0.007302979946136475	0.020289100646972657	0.924510986328125	-0.002180700063705444	0.013163999557495117	0.962927978515625	0.031527099609375	0.06505870056152344	0.92325	0.020328500747680663	0.05851869964599609	0.9387210083007812	0.009927709579467774	0.05082899856567383	0.95306298828125	0.00172527003288269	0.03394089889526367	0.975760009765625	-0.027990100860595703	-0.003354969978332519	1.0396199951171874
13	0.43333333333333335	0.005770999908447266	-0.09676010131835938	0.9586740112304688	0.008206130027770996	-0.07388739776611328	0.9730009765625	0.003290560007095337	-0.054292499542236326	0.9957979736328125	-0.0008316919803619381	-0.02358060073852539	1.016219970703125	0.02779439926147461	-0.04592110061645508	0.8774459838867188	0.020057699203491212	-0.04286949920654297	0.898677001953125	0.010624699592590332	-0.03937030029296875	0.9192630004882812	-0.001080950021743774	-0.031392999649047855	0.95739501953125	0.027899200439453126	-0.00024395799636840802	0.8618939819335938	0.02094860076904297	-0.003682179927825927	0.8860499877929687	0.008333789825439452	-0.00595881986618042	0.9140869750976562	-0.004435289859771728	-0.008251580238342285	0.955635009765625	0.029783599853515624	0.026149200439453124	0.8762899780273438	0.02034429931640625	0.024066499710083008	0.8988099975585937	0.0071039400100708005	0.020350299835205077	0.9244450073242187	-0.0023746800422668446	0.013244700431823731	0.9629310302734375	0.031311399459838865	0.065	0.92322802734375	0.02004560089111328	0.0585364990234375	0.9386589965820312	0.009673199653625487	0.050917098999023434	0.953010009765625	0.001505730032920837	0.034056098937988284	0.9757340087890625	-0.02793199920654297	-0.0032662398815155027	1.03972998046875
14	0.4666666666666667	0.006227459907531738	-0.09652770233154297	0.9585679931640625	0.00854321002960205	-0.07358719635009765	0.9729509887695312	0.003429029941558838	-0.05397330093383789	0.9958900146484375	-0.0008161259889602661	-0.02336919975280762	1.01627001953125	0.027759899139404298	-0.0458385009765625	0.8774810180664062	0.019974000930786134	-0.04278799819946289	0.898666015625	0.01053559970855713	-0.03928810119628906	0.9192670288085938	-0.001084509968757629	-0.031244600296020508	0.9573629760742187	0.027752199172973634	4.0306899696588006e-05	0.86193701171875	0.0207549991607666	-0.003436310052871704	0.8860809936523437	0.008160030364990235	-0.005757790088653564	0.9140590209960937	-0.004606989860534668	-0.008116769790649413	0.9556119995117187	0.0295575008392334	0.026431699752807618	0.8762949829101563	0.02010260009765625	0.02430470085144043	0.8988289794921875	0.006788750171661377	0.020546699523925783	0.9244769897460937	-0.002738070011138916	0.013379099845886231	0.962958984375	0.03082789993286133	0.06512110137939453	0.9231380004882812	0.01954890060424805	0.0587219009399414	0.938531005859375	0.009174790382385254	0.051107898712158206	0.95289697265625	0.001126999974250793	0.034264400482177736	0.9756959838867187	-0.027950199127197265	-0.003102360010147094	1.039739990234375
